#!OML:ASF F:\VICON\USERDATA\INSTALL\rory3\rory3.ASF
:FULLY-SPECIFIED
:DEGREES
47
root 7.68487 18.6872 8.88096 -169.955 -69.9997 169.384
lowerback 11.6205 -1.58484 -8.84615
upperback 3.42667 -3.47543 -2.91374
thorax -2.57462 -1.8233 2.38376
lowerneck -9.87416 -4.45161 -9.40612
upperneck 11.8173 -6.84248 14.3572
head 6.01773 -2.88452 5.56096
rclavicle -1.92821e-014 -7.95139e-016
rhumerus -29.699 -16.5608 -60.6154
rradius 52.7724
rwrist -10.5972
rhand -31.0603 1.13569
rfingers 7.12502
rthumb -4.34133 -28.7998
lclavicle -1.92821e-014 -7.95139e-016
lhumerus -21.2505 10.3444 72.3108
lradius 17.0057
lwrist -3.19316
lhand -18.9489 29.8836
lfingers 7.12502
lthumb 7.35452 59.7357
rfemur -27.2044 19.1732 5.79194
rtibia 31.5787
rfoot -7.03258 -11.6581
rtoes 2.07724
lfemur -2.73438 2.96043 -28.5635
ltibia 19.1206
lfoot -17.3468 17.2164
ltoes -2.15137
48
root 7.66467 18.6939 8.86499 -170.114 -69.8084 169.675
lowerback 11.5542 -1.62434 -8.85199
upperback 3.4227 -3.51534 -2.84861
thorax -2.53341 -1.84357 2.45659
lowerneck -9.97189 -4.43564 -9.43234
upperneck 11.8023 -6.81626 14.4114
head 6.02991 -2.86608 5.58456
rclavicle 2.5842e-014 8.74653e-015
rhumerus -29.5971 -16.88 -60.4173
rradius 53.4427
rwrist -10.5141
rhand -31.5752 1.43153
rfingers 7.12502
rthumb -4.83851 -28.4932
lclavicle 2.5842e-014 8.74653e-015
lhumerus -20.8074 9.41924 72.727
lradius 17.4185
lwrist -2.08111
lhand -19.0362 29.5741
lfingers 7.12502
lthumb 7.27017 59.4292
rfemur -27.3129 19.394 5.89029
rtibia 30.9384
rfoot -6.78247 -12.3706
rtoes 2.85044
lfemur -2.62838 2.7993 -28.5103
ltibia 18.8326
lfoot -17.4294 17.6516
ltoes -2.82915
49
root 7.6435 18.699 8.84749 -170.382 -69.6697 170.046
lowerback 11.5528 -1.63084 -8.82679
upperback 3.40453 -3.51817 -2.80622
thorax -2.5502 -1.84288 2.48774
lowerneck -9.89681 -4.48814 -9.37474
upperneck 11.6157 -6.88376 14.4301
head 5.96664 -2.90164 5.57272
rclavicle 2.70347e-014 1.27222e-014
rhumerus -29.8083 -17.2757 -60.2412
rradius 54.3605
rwrist -10.3552
rhand -32.0466 1.70708
rfingers 7.12502
rthumb -5.29376 -28.2068
lclavicle 2.70347e-014 1.27222e-014
lhumerus -20.3548 7.99372 73.1846
lradius 17.8773
lwrist -0.843554
lhand -19.672 30.0664
lfingers 7.12502
lthumb 6.65648 59.9418
rfemur -27.3701 19.4443 6.12157
rtibia 30.3409
rfoot -6.45331 -13.2225
rtoes 3.20539
lfemur -2.4874 2.7426 -28.3919
ltibia 18.565
lfoot -17.3867 17.9794
ltoes -3.60277
50
root 7.62442 18.7029 8.83048 -169.971 -69.4934 169.704
lowerback 11.5459 -1.63866 -8.93001
upperback 3.40952 -3.54619 -2.87758
thorax -2.53657 -1.859 2.47306
lowerneck -9.85022 -4.5423 -9.17121
upperneck 11.3739 -6.94837 14.3366
head 5.88188 -2.93587 5.49812
rclavicle 4.35338e-014 -4.05521e-014
rhumerus -29.7342 -17.6052 -60.1031
rradius 55.0277
rwrist -10.3248
rhand -32.1497 1.87577
rfingers 7.12502
rthumb -5.39322 -28.0356
lclavicle 4.35338e-014 -4.05521e-014
lhumerus -19.8561 6.84197 73.5046
lradius 18.2807
lwrist -0.139117
lhand -19.7746 30.3976
lfingers 7.12502
lthumb 6.55741 60.2761
rfemur -27.4308 19.3473 6.14298
rtibia 29.7906
rfoot -6.08542 -14.1196
rtoes 3.38344
lfemur -2.39474 2.75648 -28.5292
ltibia 18.3405
lfoot -17.4653 18.129
ltoes -3.19502
51
root 7.60238 18.7081 8.8141 -169.744 -69.3638 169.509
lowerback 11.5893 -1.68479 -8.9194
upperback 3.41782 -3.61611 -2.93722
thorax -2.54927 -1.89455 2.41536
lowerneck -9.84804 -4.53821 -9.04968
upperneck 11.1933 -6.94422 14.3579
head 5.82221 -2.93154 5.4826
rclavicle 6.30147e-014 3.18055e-014
rhumerus -29.4059 -17.8015 -59.9608
rradius 55.4562
rwrist -10.3931
rhand -32.1434 1.70499
rfingers 7.12502
rthumb -5.38718 -28.2065
lclavicle 6.30147e-014 3.18055e-014
lhumerus -19.4399 5.64709 73.845
lradius 18.762
lwrist 0.750894
lhand -19.8901 30.4956
lfingers 7.12502
lthumb 6.44593 60.3775
rfemur -27.3563 19.3277 6.21719
rtibia 29.213
rfoot -5.8866 -15.2618
rtoes 4.56159
lfemur -2.31821 2.8951 -28.5944
ltibia 18.28
lfoot -17.5757 18.1476
ltoes -2.90872
